<svg width="37" height="37" viewBox="0 0 37 37" fill="none" xmlns="http://www.w3.org/2000/svg">
<mask id="mask0_2713_1972" style="mask-type:luminance" maskUnits="userSpaceOnUse" x="0" y="0" width="37" height="37">
<path d="M37 0H0V37H37V0Z" fill="white"/>
</mask>
<g mask="url(#mask0_2713_1972)">
<path d="M18.5 37C28.7173 37 37 28.7173 37 18.5C37 8.28273 28.7173 0 18.5 0C8.28273 0 0 8.28273 0 18.5C0 28.7173 8.28273 37 18.5 37Z" fill="white"/>
<path fill-rule="evenodd" clip-rule="evenodd" d="M11.8628 2.47647C13.9671 1.60486 16.2224 1.15625 18.5 1.15625C20.7776 1.15625 23.0329 1.60486 25.1372 2.47647C27.2414 3.34807 29.1534 4.6256 30.7639 6.23612C32.3744 7.84664 33.6519 9.75861 34.5235 11.8628C35.2473 13.6102 35.6794 15.4617 35.8052 17.3438H36.9638C36.8365 15.3098 36.3737 13.3081 35.5918 11.4204C34.6621 9.17581 33.2994 7.13642 31.5815 5.41851C29.8636 3.70064 27.8242 2.33794 25.5796 1.40823C23.3351 0.478516 20.9295 0 18.5 0C16.0705 0 13.6649 0.478516 11.4204 1.40823C9.17581 2.33794 7.13642 3.70064 5.41851 5.41851C3.70064 7.13642 2.33794 9.17581 1.40823 11.4204C0.478516 13.6649 0 16.0705 0 18.5C0 20.9295 0.478516 23.3351 1.40823 25.5796C2.33794 27.8242 3.70064 29.8636 5.41851 31.5815C7.13642 33.2994 9.17581 34.6621 11.4204 35.5918C13.6649 36.5215 16.0705 37 18.5 37C20.9295 37 23.3351 36.5215 25.5796 35.5918C27.8242 34.6621 29.8636 33.2994 31.5815 31.5815C33.2994 29.8636 34.6621 27.8242 35.5918 25.5796C36.5215 23.3351 37 20.9295 37 18.5H35.8438C35.8438 20.7776 35.3951 23.0329 34.5235 25.1372C33.6519 27.2414 32.3744 29.1534 30.7639 30.7639C29.1534 32.3744 27.2414 33.6519 25.1372 34.5235C23.0329 35.3951 20.7776 35.8438 18.5 35.8438C16.2224 35.8438 13.9671 35.3951 11.8628 34.5235C9.75861 33.6519 7.84664 32.3744 6.23612 30.7639C4.6256 29.1534 3.34807 27.2414 2.47647 25.1372C1.60486 23.0329 1.15625 20.7776 1.15625 18.5C1.15625 16.2224 1.60486 13.9671 2.47647 11.8628C3.34807 9.75861 4.6256 7.84664 6.23612 6.23612C7.84664 4.6256 9.75861 3.34807 11.8628 2.47647ZM33.5312 18.5H34.6875C34.6875 21.3989 33.9089 24.2445 32.4333 26.7397C30.9576 29.2349 28.8388 31.2882 26.2984 32.6848C23.758 34.0813 20.8891 34.7701 17.9916 34.6791C15.094 34.588 12.2741 33.7205 9.82632 32.1671C7.37863 30.6138 5.39298 28.4315 4.07685 25.8485C2.76074 23.2655 2.16243 20.3764 2.34446 17.4831C2.52649 14.5898 3.48217 11.7985 5.11164 9.40082C6.74112 7.00313 8.98462 5.08699 11.6077 3.85266L12.1 4.89885C9.66431 6.04501 7.58107 7.8243 6.06795 10.0507C4.55488 12.2772 3.66746 14.8691 3.49843 17.5557C3.3294 20.2423 3.88497 22.9251 5.10706 25.3236C6.32917 27.7221 8.17302 29.7485 10.4459 31.1909C12.7188 32.6333 15.3373 33.4388 18.0279 33.5234C20.7185 33.6079 23.3824 32.9684 25.7414 31.6715C28.1003 30.3747 30.0677 28.4681 31.4381 26.1511C32.8083 23.8342 33.5312 21.1918 33.5312 18.5ZM6.67443 13.818C7.46309 11.8261 8.74208 10.0657 10.3928 8.70009L9.65575 7.80922C7.85501 9.29893 6.45974 11.2194 5.5994 13.3923C4.73905 15.5653 4.44152 17.9204 4.73443 20.2391C5.02733 22.5577 5.90122 24.7648 7.27489 26.6556C8.64861 28.5463 10.4777 30.0594 12.5923 31.0546C14.707 32.0496 17.0388 32.4945 19.3713 32.3477C21.7037 32.201 23.9613 31.4674 25.9346 30.2151C27.9079 28.9629 29.5329 27.2324 30.6588 25.1844C31.7847 23.1364 32.375 20.8372 32.375 18.5001H31.2188C31.2188 20.6424 30.6776 22.7501 29.6456 24.6274C28.6135 26.5047 27.1239 28.091 25.3151 29.2389C23.5062 30.3868 21.4367 31.0592 19.2986 31.1937C17.1605 31.3283 15.0231 30.9205 13.0846 30.0083C11.1462 29.0962 9.46955 27.7092 8.21035 25.976C6.9511 24.2428 6.15005 22.2196 5.88157 20.0941C5.61304 17.9687 5.88578 15.8099 6.67443 13.818Z" fill="#2775CA"/>
<path fill-rule="evenodd" clip-rule="evenodd" d="M18.5 30.0625C24.9076 30.0625 30.0625 24.9077 30.0625 18.5C30.0625 12.0923 24.9076 6.9375 18.5 6.9375C12.0924 6.9375 6.9375 12.0923 6.9375 18.5C6.9375 24.9077 12.0924 30.0625 18.5 30.0625ZM21.6798 20.3308C21.6798 18.6447 20.6681 18.0665 18.6446 17.8256C17.1993 17.633 16.9102 17.2475 16.9102 16.5729C16.9102 15.8984 17.392 15.465 18.3556 15.465C19.2227 15.465 19.7045 15.754 19.9454 16.4767C19.9693 16.5484 20.017 16.6082 20.0765 16.6503C20.137 16.6931 20.2098 16.7175 20.2827 16.7175H21.0534C21.2462 16.7175 21.3907 16.5729 21.3907 16.3803V16.3322C21.1979 15.2722 20.3308 14.4533 19.2227 14.3569V13.2006C19.2227 13.008 19.0782 12.8634 18.8373 12.8151H18.1147C17.922 12.8151 17.7774 12.9597 17.7292 13.2006V14.3087C16.2839 14.5014 15.3686 15.465 15.3686 16.6694C15.3686 18.2592 16.3321 18.8854 18.3556 19.1264C19.7045 19.3673 20.1381 19.6564 20.1381 20.4272C20.1381 21.1981 19.4636 21.728 18.5483 21.728C17.2956 21.728 16.862 21.1979 16.7175 20.4753C16.6694 20.2827 16.5248 20.1862 16.3803 20.1862H15.5612C15.3686 20.1862 15.2241 20.3308 15.2241 20.5236V20.5717C15.4167 21.7761 16.1876 22.6433 17.7774 22.8842V24.0405C17.7774 24.2331 17.922 24.3776 18.1628 24.4259H18.8854C19.0782 24.4259 19.2227 24.2814 19.2709 24.0405V22.8842C20.7163 22.6433 21.6798 21.6315 21.6798 20.3308ZM11.7548 16.1392C10.3575 19.8489 12.2846 24.0403 16.0425 25.3892C16.187 25.4856 16.3315 25.6783 16.3315 25.8228V26.4974C16.3315 26.5936 16.3315 26.6419 16.2833 26.69C16.2496 26.8252 16.1445 26.913 16.0183 26.9201C15.9646 26.923 15.9072 26.9115 15.8497 26.8827C13.1518 26.0155 11.0802 23.9439 10.213 21.246C8.7677 16.6692 11.2729 11.8033 15.8497 10.358C15.8979 10.3099 15.9943 10.3099 16.0425 10.3099C16.2353 10.358 16.3315 10.5025 16.3315 10.6952V11.3697C16.3315 11.531 16.2883 11.6492 16.2019 11.7385C16.1593 11.7826 16.1061 11.8197 16.0425 11.8514C14.0673 12.5741 12.4775 14.1158 11.7548 16.1392ZM20.7157 10.5506C20.7638 10.358 20.9565 10.2616 21.1493 10.358C23.799 11.2252 25.9189 13.2967 26.7861 16.0428C28.2314 20.6197 25.7261 25.4856 21.1493 26.931C21.1011 26.9791 21.0048 26.9791 20.9565 26.9791C20.7638 26.931 20.6675 26.7864 20.6675 26.5936V25.9192C20.6675 25.6783 20.7638 25.5337 20.9565 25.4374C22.9318 24.7147 24.5216 23.1731 25.2443 21.1497C26.6415 17.44 24.7143 13.2486 20.9565 11.8997C20.812 11.8033 20.6675 11.6106 20.6675 11.4178V10.7435C20.6675 10.647 20.6675 10.5989 20.7157 10.5506Z" fill="#2775CA"/>
</g>
</svg>
